<svg width="32" height="38" viewBox="0 0 32 38" fill="none" xmlns="http://www.w3.org/2000/svg">
<path d="M26.233 20.1357C26.2714 17.2128 27.8718 14.4471 30.4108 12.9162C28.8091 10.6726 26.1263 9.25009 23.3352 9.16444C20.3582 8.85796 17.4721 10.9116 15.9551 10.9116C14.4087 10.9116 12.073 9.19487 9.55784 9.24562C6.27944 9.34951 3.22315 11.1776 1.62815 13.9888C-1.80049 19.8109 0.756963 28.3676 4.04131 33.0737C5.68454 35.3782 7.60501 37.9524 10.1179 37.8611C12.5769 37.7611 13.4953 36.3232 16.4635 36.3232C19.4042 36.3232 20.2659 37.8611 22.8297 37.8031C25.4684 37.7611 27.1308 35.4884 28.7164 33.162C29.8971 31.52 30.8056 29.7052 31.4083 27.7849C28.3074 26.4985 26.2366 23.4378 26.233 20.1357Z" fill="black"/>
<path d="M21.3903 6.06941C22.8289 4.37548 23.5377 2.19822 23.3661 0C21.1681 0.226425 19.1378 1.25675 17.6796 2.88569C16.2538 4.47725 15.5118 6.61621 15.652 8.73041C17.8508 8.75261 20.0124 7.75021 21.3903 6.06941Z" fill="black"/>
</svg>
